<?xml version="1.0" encoding="UTF-8"?>
<svg width="320" height="60" viewBox="0 0 320 60" fill="none" xmlns="http://www.w3.org/2000/svg">
  <!-- Background Rect with rounded corners -->
  <rect x="2" y="2" width="316" height="56" rx="8" fill="#F0F8FF" stroke="#3B82F6" stroke-width="3"/>
  
  <!-- Car Icon -->
  <g transform="translate(15, 15) scale(1.5)">
    <path d="M18.92 8.02C18.72 7.42 18.16 7 17.5 7H6.5C5.84 7 5.29 7.42 5.08 8.02L3 14V22C3 22.55 3.45 23 4 23H5C5.55 23 6 22.55 6 22V21H18V22C18 22.55 18.45 23 19 23H20C20.55 23 21 22.55 21 22V14L18.92 8.02ZM6.5 18C5.67 18 5 17.33 5 16.5C5 15.67 5.67 15 6.5 15C7.33 15 8 15.67 8 16.5C8 17.33 7.33 18 6.5 18ZM17.5 18C16.67 18 16 17.33 16 16.5C16 15.67 16.67 15 17.5 15C18.33 15 19 15.67 19 16.5C19 17.33 18.33 18 17.5 18ZM5 14L6.5 9H17.5L19 14H5Z" fill="#3B82F6"/>
  </g>
  
  <!-- Text - Pre-Purchase Inspection (all on one line) -->
  <text x="65" y="35" font-family="Arial, sans-serif" font-size="20" font-weight="bold" fill="#3B82F6">Pre-Purchase Inspection</text>
</svg>